<svg width="30" height="30" viewBox="0 0 30 30" fill="none" xmlns="http://www.w3.org/2000/svg">
<path d="M11.4002 21H4.06818C3.51967 21 2.99362 20.7788 2.60576 20.3849C2.2179 19.9911 2 19.457 2 18.9V5.1C2 3.9408 2.92655 3 4.06818 3H25.9318C27.0735 3 28 3.9408 28 5.1V18.9C28 19.457 27.7821 19.9911 27.3942 20.3849C27.0064 20.7788 26.4803 21 25.9318 21H18.5998C18.8019 22.65 19.5512 24.1824 20.6905 25.5084C20.8013 25.6389 20.873 25.7989 20.8971 25.9695C20.9211 26.1401 20.8966 26.3141 20.8264 26.471C20.7562 26.6279 20.6432 26.7611 20.5007 26.8548C20.3583 26.9486 20.1924 26.999 20.0227 27H9.97727C9.80713 27 9.64059 26.9502 9.49754 26.8566C9.3545 26.7631 9.241 26.6297 9.17059 26.4724C9.10019 26.3151 9.07585 26.1406 9.10049 25.9697C9.12513 25.7987 9.1977 25.6386 9.30955 25.5084C10.4488 24.1824 11.1981 22.65 11.4002 21ZM26.2273 5.1C26.2273 5.02044 26.1961 4.94413 26.1407 4.88787C26.0853 4.83161 26.0102 4.8 25.9318 4.8H4.06818C3.98982 4.8 3.91467 4.83161 3.85926 4.88787C3.80386 4.94413 3.77273 5.02044 3.77273 5.1V18.9C3.77273 19.0656 3.90509 19.2 4.06818 19.2H25.9318C26.0102 19.2 26.0853 19.1684 26.1407 19.1121C26.1961 19.0559 26.2273 18.9796 26.2273 18.9V5.1ZM16.8165 21H13.1835C13.0346 22.5192 12.517 23.934 11.7382 25.2H18.2618C17.483 23.934 16.9642 22.5192 16.8165 21Z" fill="black"/>
</svg>
