<svg width="30" height="30" viewBox="0 0 30 30" fill="none" xmlns="http://www.w3.org/2000/svg">
<path d="M10.5 3C8.855 3 7.5 4.355 7.5 6V24C7.5 25.645 8.855 27 10.5 27H20.5C22.145 27 23.5 25.645 23.5 24V6C23.5 4.355 22.145 3 20.5 3H10.5ZM10.5 5H20.5C21.055 5 21.5 5.445 21.5 6V24C21.5 24.555 21.055 25 20.5 25H10.5C9.945 25 9.5 24.555 9.5 24V6C9.5 5.445 9.945 5 10.5 5ZM15.5 22C15.2348 22 14.9804 22.1054 14.7929 22.2929C14.6054 22.4804 14.5 22.7348 14.5 23C14.5 23.2652 14.6054 23.5196 14.7929 23.7071C14.9804 23.8946 15.2348 24 15.5 24C15.7652 24 16.0196 23.8946 16.2071 23.7071C16.3946 23.5196 16.5 23.2652 16.5 23C16.5 22.7348 16.3946 22.4804 16.2071 22.2929C16.0196 22.1054 15.7652 22 15.5 22Z" fill="black"/>
</svg>
