<svg width="30" height="30" viewBox="0 0 30 30" fill="none" xmlns="http://www.w3.org/2000/svg">
<path d="M23.6623 3H7.33774C6.59882 3 6 3.59232 6 4.32133V25.6795C6 26.4094 6.59797 27 7.33774 27H23.6623C24.402 27 25 26.4094 25 25.6804V4.32218C25 3.59232 24.402 3 23.6631 3H23.6623ZM15.5017 26.5266C15.4291 26.5307 15.3563 26.5201 15.288 26.4954C15.2196 26.4707 15.1571 26.4326 15.1042 26.3832C15.0513 26.3338 15.0092 26.2743 14.9804 26.2083C14.9516 26.1423 14.9367 26.0712 14.9367 25.9993C14.9367 25.9274 14.9516 25.8563 14.9804 25.7903C15.0092 25.7243 15.0513 25.6648 15.1042 25.6154C15.1571 25.566 15.2196 25.5278 15.288 25.5032C15.3563 25.4785 15.4291 25.4679 15.5017 25.4719C15.6368 25.4812 15.7633 25.5407 15.8557 25.6385C15.9481 25.7363 15.9995 25.8651 15.9995 25.9989C15.9995 26.1326 15.9481 26.2614 15.8557 26.3592C15.7633 26.457 15.6368 26.5174 15.5017 26.5266ZM22.9421 24.4636C22.9419 24.5335 22.9136 24.6005 22.8635 24.6498C22.8134 24.6992 22.7455 24.7269 22.6748 24.7269H8.32866C8.25796 24.7267 8.19021 24.6989 8.14014 24.6496C8.09007 24.6003 8.06173 24.5335 8.06128 24.4636V5.43257C8.06128 5.2866 8.18087 5.16847 8.32866 5.16847H22.6731C22.82 5.16847 22.9396 5.2866 22.9396 5.43257L22.9421 24.4636Z" fill="black"/>
</svg>
