<svg width="24" height="24" viewBox="0 0 24 24" fill="none" xmlns="http://www.w3.org/2000/svg">
<path d="M12.001 2C6.47601 2 2.00101 6.475 2.00101 12C1.9992 14.0993 2.65877 16.1458 3.88606 17.849C5.11336 19.5522 6.84601 20.8254 8.83801 21.488C9.33801 21.575 9.52601 21.275 9.52601 21.012C9.52601 20.775 9.51301 19.988 9.51301 19.15C7.00101 19.613 6.35101 18.538 6.15101 17.975C6.03801 17.687 5.55101 16.8 5.12601 16.562C4.77601 16.375 4.27601 15.912 5.11301 15.9C5.90101 15.887 6.46301 16.625 6.65101 16.925C7.55101 18.437 8.98801 18.012 9.56301 17.75C9.65101 17.1 9.91301 16.663 10.201 16.413C7.97601 16.163 5.65101 15.3 5.65101 11.475C5.65101 10.387 6.03801 9.488 6.67601 8.788C6.57601 8.538 6.22601 7.513 6.77601 6.138C6.77601 6.138 7.61301 5.875 9.52601 7.162C10.3402 6.93664 11.1812 6.82327 12.026 6.825C12.876 6.825 13.726 6.937 14.526 7.162C16.439 5.862 17.276 6.138 17.276 6.138C17.826 7.513 17.476 8.538 17.376 8.788C18.013 9.488 18.401 10.375 18.401 11.475C18.401 15.313 16.064 16.163 13.839 16.413C14.201 16.725 14.514 17.325 14.514 18.263C14.514 19.6 14.501 20.675 14.501 21.013C14.501 21.275 14.689 21.587 15.189 21.487C17.1735 20.8161 18.8979 19.5401 20.1196 17.8384C21.3413 16.1367 21.9989 14.0948 22 12C22 6.475 17.525 2 12 2" fill="black"/>
</svg>
